<svg xmlns="http://www.w3.org/2000/svg" width="1000" height="760" viewBox="0 0 1000 760"><defs><linearGradient id="bg" x2="1" y2="1"><stop stop-color="#123b2e"/><stop offset="1" stop-color="#07120f"/></linearGradient></defs><rect x="20" y="80" width="900" height="585" rx="25" fill="#101715" stroke="#6b756e" stroke-width="3"/><rect x="42" y="105" width="854" height="530" rx="8" fill="url(#bg)"/><path d="M0 665H940L900 696H45Z" fill="#828b85"/><rect x="45" y="108" width="848" height="53" fill="#123f30"/><text x="66" y="141" fill="#c99a3d" font-family="Georgia" font-size="24">TGI</text><text x="139" y="140" fill="#eee9dc" font-family="Arial" font-size="13">OPERATING DESK / MEMBER ACCESS</text><text x="65" y="211" fill="#eee9dc" font-family="Georgia" font-size="32">Your preparation. One desk.</text><text x="65" y="268" fill="#c99a3d" font-family="Arial" font-size="15">Operating Brief</text><text x="65" y="330" fill="#c99a3d" font-family="Arial" font-size="15">Daily Zones</text><text x="65" y="392" fill="#c99a3d" font-family="Arial" font-size="15">Desk Updates</text><text x="65" y="454" fill="#c99a3d" font-family="Arial" font-size="15">Case Studies</text><text x="65" y="516" fill="#c99a3d" font-family="Arial" font-size="15">Weekly Review</text><text x="65" y="578" fill="#c99a3d" font-family="Arial" font-size="15">Archive</text><rect x="242" y="238" width="395" height="348" rx="7" fill="#071c17" stroke="#426250"/><text x="262" y="270" fill="#eee9dc" font-family="Georgia" font-size="21">Operating Brief</text><text x="262" y="296" fill="#98b4a5" font-family="Arial" font-size="12">Context · Priorities · Conditions</text><path d="M260 320H619" stroke="#153e31"/><path d="M260 360H619" stroke="#153e31"/><path d="M260 400H619" stroke="#153e31"/><path d="M260 440H619" stroke="#153e31"/><path d="M260 480H619" stroke="#153e31"/><path d="M260 520H619" stroke="#153e31"/><rect x="267" y="329" width="346" height="30" fill="#c99a3d" fill-opacity=".2" stroke="#c99a3d" stroke-width="2"/><rect x="267" y="519" width="346" height="30" fill="#368e6e" fill-opacity=".3" stroke="#55b698" stroke-width="2"/><path d="M280 462V503" stroke="#62b695" stroke-width="2"/><rect x="276" y="473" width="8" height="18" fill="#62b695"/><path d="M301 442V483" stroke="#62b695" stroke-width="2"/><rect x="297" y="453" width="8" height="18" fill="#62b695"/><path d="M322 412V453" stroke="#62b695" stroke-width="2"/><rect x="318" y="423" width="8" height="18" fill="#62b695"/><path d="M343 390V431" stroke="#c99a3d" stroke-width="2"/><rect x="339" y="401" width="8" height="18" fill="#c99a3d"/><path d="M364 368V409" stroke="#62b695" stroke-width="2"/><rect x="360" y="379" width="8" height="18" fill="#62b695"/><path d="M385 355V396" stroke="#62b695" stroke-width="2"/><rect x="381" y="366" width="8" height="18" fill="#62b695"/><path d="M406 371V412" stroke="#c99a3d" stroke-width="2"/><rect x="402" y="382" width="8" height="18" fill="#c99a3d"/><path d="M427 401V442" stroke="#c99a3d" stroke-width="2"/><rect x="423" y="412" width="8" height="18" fill="#c99a3d"/><path d="M448 432V473" stroke="#c99a3d" stroke-width="2"/><rect x="444" y="443" width="8" height="18" fill="#c99a3d"/><path d="M469 454V495" stroke="#c99a3d" stroke-width="2"/><rect x="465" y="465" width="8" height="18" fill="#c99a3d"/><path d="M490 480V521" stroke="#c99a3d" stroke-width="2"/><rect x="486" y="491" width="8" height="18" fill="#c99a3d"/><path d="M511 464V505" stroke="#62b695" stroke-width="2"/><rect x="507" y="475" width="8" height="18" fill="#62b695"/><path d="M532 437V478" stroke="#62b695" stroke-width="2"/><rect x="528" y="448" width="8" height="18" fill="#62b695"/><path d="M553 409V450" stroke="#62b695" stroke-width="2"/><rect x="549" y="420" width="8" height="18" fill="#62b695"/><path d="M574 382V423" stroke="#62b695" stroke-width="2"/><rect x="570" y="393" width="8" height="18" fill="#62b695"/><path d="M595 361V402" stroke="#62b695" stroke-width="2"/><rect x="591" y="372" width="8" height="18" fill="#62b695"/><rect x="653" y="238" width="223" height="158" rx="7" fill="#0b251c" stroke="#426250"/><text x="670" y="270" fill="#eee9dc" font-family="Georgia" font-size="19">Zones &amp; Scenarios</text><text x="670" y="315" fill="#a5c0b1" font-family="Arial" font-size="14">Scenario / Watching</text><text x="670" y="348" fill="#c99a3d" font-family="Arial" font-size="12">Conditions &amp; invalidation →</text><rect x="653" y="412" width="223" height="174" rx="7" fill="#0b251c" stroke="#426250"/><text x="670" y="446" fill="#eee9dc" font-family="Georgia" font-size="19">Latest Desk Update</text><text x="670" y="486" fill="#a5c0b1" font-family="Arial" font-size="13">Read the newest timestamp</text><text x="670" y="521" fill="#a5c0b1" font-family="Arial" font-size="13">Review scenario status</text><rect x="777" y="338" width="197" height="381" rx="28" fill="#0b100e" stroke="#89928b" stroke-width="3"/><rect x="790" y="365" width="171" height="327" rx="12" fill="#0b3024"/><text x="804" y="400" fill="#c99a3d" font-family="Georgia" font-size="20">TGI</text><text x="804" y="432" fill="#eee9dc" font-family="Georgia" font-size="18">Operating Desk</text><rect x="802" y="453" width="148" height="96" rx="6" fill="#071b16" stroke="#426250"/><text x="813" y="479" fill="#a5c0b1" font-family="Arial" font-size="12">Latest Brief</text><path d="M812 531L834 517L848 525L871 501L886 513L907 490L932 499" fill="none" stroke="#c99a3d" stroke-width="3"/><text x="804" y="580" fill="#eee9dc" font-family="Arial" font-size="13">Daily Zones &amp; Scenarios</text><text x="804" y="616" fill="#a5c0b1" font-family="Arial" font-size="12">Conditions · Updates</text><text x="804" y="659" fill="#c99a3d" font-family="Arial" font-size="12">Prepare. Evaluate. Review.</text></svg>